<svg xmlns="http://www.w3.org/2000/svg" viewBox="0 0 512 512">
  <defs>
    <linearGradient id="bg" x1="0" y1="0" x2="1" y2="1">
      <stop offset="0%" stop-color="#0c0c0c"/>
      <stop offset="100%" stop-color="#1a1a2e"/>
    </linearGradient>
    <linearGradient id="flask" x1="0" y1="0" x2="0" y2="1">
      <stop offset="0%" stop-color="#c8f7c5"/>
      <stop offset="100%" stop-color="#4ade80"/>
    </linearGradient>
    <linearGradient id="liquid" x1="0" y1="0" x2="0" y2="1">
      <stop offset="0%" stop-color="#818cf8"/>
      <stop offset="40%" stop-color="#6366f1"/>
      <stop offset="100%" stop-color="#4338ca"/>
    </linearGradient>
    <clipPath id="flask-clip">
      <path d="M196 180 L196 280 Q196 300 160 340 Q120 385 120 400 Q120 440 170 460 Q200 472 256 472 Q312 472 342 460 Q392 440 392 400 Q392 385 352 340 Q316 300 316 280 L316 180 Z"/>
    </clipPath>
  </defs>
  
  <!-- Background -->
  <rect width="512" height="512" rx="108" fill="url(#bg)"/>
  
  <!-- Subtle grid pattern -->
  <g opacity="0.04" stroke="#fff" stroke-width="1">
    <line x1="0" y1="128" x2="512" y2="128"/>
    <line x1="0" y1="256" x2="512" y2="256"/>
    <line x1="0" y1="384" x2="512" y2="384"/>
    <line x1="128" y1="0" x2="128" y2="512"/>
    <line x1="256" y1="0" x2="256" y2="512"/>
    <line x1="384" y1="0" x2="384" y2="512"/>
  </g>
  
  <!-- Film strip left -->
  <g opacity="0.12">
    <rect x="56" y="100" width="36" height="312" rx="4" fill="#fff"/>
    <rect x="62" y="112" width="10" height="14" rx="2" fill="#0c0c0c"/>
    <rect x="62" y="136" width="10" height="14" rx="2" fill="#0c0c0c"/>
    <rect x="62" y="160" width="10" height="14" rx="2" fill="#0c0c0c"/>
    <rect x="62" y="184" width="10" height="14" rx="2" fill="#0c0c0c"/>
    <rect x="62" y="208" width="10" height="14" rx="2" fill="#0c0c0c"/>
    <rect x="62" y="232" width="10" height="14" rx="2" fill="#0c0c0c"/>
    <rect x="62" y="256" width="10" height="14" rx="2" fill="#0c0c0c"/>
    <rect x="62" y="280" width="10" height="14" rx="2" fill="#0c0c0c"/>
    <rect x="62" y="304" width="10" height="14" rx="2" fill="#0c0c0c"/>
    <rect x="62" y="328" width="10" height="14" rx="2" fill="#0c0c0c"/>
    <rect x="62" y="352" width="10" height="14" rx="2" fill="#0c0c0c"/>
    <rect x="62" y="376" width="10" height="14" rx="2" fill="#0c0c0c"/>
    <rect x="76" y="112" width="10" height="14" rx="2" fill="#0c0c0c"/>
    <rect x="76" y="136" width="10" height="14" rx="2" fill="#0c0c0c"/>
    <rect x="76" y="160" width="10" height="14" rx="2" fill="#0c0c0c"/>
    <rect x="76" y="184" width="10" height="14" rx="2" fill="#0c0c0c"/>
    <rect x="76" y="208" width="10" height="14" rx="2" fill="#0c0c0c"/>
    <rect x="76" y="232" width="10" height="14" rx="2" fill="#0c0c0c"/>
    <rect x="76" y="256" width="10" height="14" rx="2" fill="#0c0c0c"/>
    <rect x="76" y="280" width="10" height="14" rx="2" fill="#0c0c0c"/>
    <rect x="76" y="304" width="10" height="14" rx="2" fill="#0c0c0c"/>
    <rect x="76" y="328" width="10" height="14" rx="2" fill="#0c0c0c"/>
    <rect x="76" y="352" width="10" height="14" rx="2" fill="#0c0c0c"/>
    <rect x="76" y="376" width="10" height="14" rx="2" fill="#0c0c0c"/>
  </g>
  
  <!-- Film strip right -->
  <g opacity="0.12">
    <rect x="420" y="100" width="36" height="312" rx="4" fill="#fff"/>
    <rect x="426" y="112" width="10" height="14" rx="2" fill="#0c0c0c"/>
    <rect x="426" y="136" width="10" height="14" rx="2" fill="#0c0c0c"/>
    <rect x="426" y="160" width="10" height="14" rx="2" fill="#0c0c0c"/>
    <rect x="426" y="184" width="10" height="14" rx="2" fill="#0c0c0c"/>
    <rect x="426" y="208" width="10" height="14" rx="2" fill="#0c0c0c"/>
    <rect x="426" y="232" width="10" height="14" rx="2" fill="#0c0c0c"/>
    <rect x="426" y="256" width="10" height="14" rx="2" fill="#0c0c0c"/>
    <rect x="426" y="280" width="10" height="14" rx="2" fill="#0c0c0c"/>
    <rect x="426" y="304" width="10" height="14" rx="2" fill="#0c0c0c"/>
    <rect x="426" y="328" width="10" height="14" rx="2" fill="#0c0c0c"/>
    <rect x="426" y="352" width="10" height="14" rx="2" fill="#0c0c0c"/>
    <rect x="426" y="376" width="10" height="14" rx="2" fill="#0c0c0c"/>
    <rect x="440" y="112" width="10" height="14" rx="2" fill="#0c0c0c"/>
    <rect x="440" y="136" width="10" height="14" rx="2" fill="#0c0c0c"/>
    <rect x="440" y="160" width="10" height="14" rx="2" fill="#0c0c0c"/>
    <rect x="440" y="184" width="10" height="14" rx="2" fill="#0c0c0c"/>
    <rect x="440" y="208" width="10" height="14" rx="2" fill="#0c0c0c"/>
    <rect x="440" y="232" width="10" height="14" rx="2" fill="#0c0c0c"/>
    <rect x="440" y="256" width="10" height="14" rx="2" fill="#0c0c0c"/>
    <rect x="440" y="280" width="10" height="14" rx="2" fill="#0c0c0c"/>
    <rect x="440" y="304" width="10" height="14" rx="2" fill="#0c0c0c"/>
    <rect x="440" y="328" width="10" height="14" rx="2" fill="#0c0c0c"/>
    <rect x="440" y="352" width="10" height="14" rx="2" fill="#0c0c0c"/>
    <rect x="440" y="376" width="10" height="14" rx="2" fill="#0c0c0c"/>
  </g>
  
  <!-- Flask neck -->
  <rect x="216" y="90" width="80" height="100" rx="6" fill="none" stroke="url(#flask)" stroke-width="5"/>
  <!-- Neck ring -->
  <rect x="206" y="84" width="100" height="14" rx="7" fill="none" stroke="url(#flask)" stroke-width="4"/>
  
  <!-- Flask body outline -->
  <path d="M216 185 L216 280 Q216 305 175 345 Q138 385 138 405 Q138 435 175 455 Q210 470 256 470 Q302 470 337 455 Q374 435 374 405 Q374 385 337 345 Q296 305 296 280 L296 185" 
        fill="none" stroke="url(#flask)" stroke-width="5" stroke-linecap="round" stroke-linejoin="round"/>
  
  <!-- Liquid inside flask -->
  <g clip-path="url(#flask-clip)">
    <rect x="110" y="340" width="290" height="140" fill="url(#liquid)" opacity="0.6"/>
    <!-- Bubbles -->
    <circle cx="200" cy="380" r="8" fill="#a5b4fc" opacity="0.4"/>
    <circle cx="280" cy="400" r="6" fill="#a5b4fc" opacity="0.3"/>
    <circle cx="240" cy="360" r="5" fill="#c7d2fe" opacity="0.35"/>
    <circle cx="310" cy="390" r="7" fill="#a5b4fc" opacity="0.25"/>
    <circle cx="220" cy="420" r="4" fill="#c7d2fe" opacity="0.3"/>
    <!-- Wave effect -->
    <path d="M110 350 Q170 335 220 345 Q270 355 320 340 Q370 325 400 345 L400 500 L110 500 Z" fill="#4338ca" opacity="0.3"/>
  </g>
  
  <!-- Measurement lines on flask -->
  <g stroke="#4ade80" stroke-width="1.5" opacity="0.3">
    <line x1="148" y1="420" x2="175" y2="420"/>
    <line x1="142" y1="390" x2="168" y2="390"/>
    <line x1="155" y1="360" x2="185" y2="360"/>
  </g>
  
  <!-- Vapor/steam from flask -->
  <g opacity="0.15">
    <path d="M240 82 Q235 60 240 40 Q245 20 240 5" stroke="#4ade80" stroke-width="3" fill="none" stroke-linecap="round"/>
    <path d="M256 80 Q260 55 256 35" stroke="#818cf8" stroke-width="2.5" fill="none" stroke-linecap="round"/>
    <path d="M272 82 Q277 65 272 45 Q267 30 272 15" stroke="#4ade80" stroke-width="2" fill="none" stroke-linecap="round"/>
  </g>
  
  <!-- "CT" monogram subtle -->
  <text x="256" y="430" text-anchor="middle" font-family="monospace" font-weight="900" font-size="42" fill="#e0e7ff" opacity="0.25" letter-spacing="6">CT</text>
</svg>
